##       ##    ## ########   ######   
##       ##   ##  ##     ## ##    ##  
##       ##  ##   ##     ## ##        
##       #####    ########  ##   #### 
##       ##  ##   ##   ##   ##    ##  
##       ##   ##  ##    ##  ##    ##  
######## ##    ## ##     ##  ######   



Plot:

A young girl is institutionalized by her wicked stepfather. Retreating to an alternative reality as a coping strategy, she envisions a plan which will help her escape from the facility.


 
http://www.imdb.com/title/tt0978764/




Format;AVI

File Size:1.5gb

Video
ID : 0
Format : MPEG-4 Visual
Format profile : Advanced Simple@L5
Format settings, BVOP : Yes
Format settings, QPel : No
Format settings, GMC : No warppoints
Format settings, Matrix : Custom
Codec ID : XVID
Codec ID/Hint : XviD
Duration : 1h 42mn
Bit rate : 1 350 Kbps
Width : 720 pixels
Height : 304 pixels
Display aspect ratio : 2.35:1
Frame rate : 24.000 fps
Color space : YUV
Chroma subsampling : 4:2:0
Bit depth : 8 bits
Scan type : Progressive
Bits/(Pixel*Frame) : 0.257
Stream size : 991 MiB (91%)
Writing library : XviD 1.2.1 (UTC 2008-12-04)

Audio
ID : 1
Format : MPEG Audio
Format version : Version 1
Format profile : Layer 3
Codec ID : 55
Codec ID/Hint : MP3
Duration : 1h 42mn
Bit rate mode : Constant
Bit rate : 128 Kbps
Channel(s) : 2 channels
Sampling rate : 44.1 KHz
Stream size : 93.9 MiB (9%)
Alignment : Aligned on interleaves
Interleave, duration : 42 ms (1.00 video frame)


Release Notes

Video:OWN

Audio:Own

Okay here we go with the first cam for sucker punch our own sources on both audio and video did some work to video usual filters resize crop sharpen adjusted colors etc came out very decent,

On to audio one of the better cam audios very audible didnt need much work.About 12 minutes the video goes away for about 8 seconds but audio is still there we had a little technical problem,and about 40 minutes in video is missing about 20 seconds

but you barely notice it other then that an very slight movement issues every now and then but no biggie extremely watchable first cam had this since yesterday but bust with other projects like source code anywho checkout sample before d/l

and enjoy.



Duration:1:43

Release Date:2011

Language:English



================================== 
http://thepiratebay.org/user/hiest
==================================



Screenshots:
 
http://www.shotpix.com/images/87379969116011834338.png
 
http://www.shotpix.com/images/58918889506737442587.png
 
http://www.shotpix.com/images/49693977875592049125.pnghttp://www.shotpix.com/images/66770332013750290396.png
 
http://www.shotpix.com/images/65089583574079672648.png
 
http://www.shotpix.com/images/90358118378294265226.png



DvD CoVeR:
 
http://www.shotpix.com/images/30397102699883496605.png



##       ##    ## ########   ######   
##       ##   ##  ##     ## ##    ##  
##       ##  ##   ##     ## ##        
##       #####    ########  ##   #### 
##       ##  ##   ##   ##   ##    ##  
##       ##   ##  ##    ##  ##    ##  
######## ##    ## ##     ##  ######   
